# Blender 4.5.0
# www.blender.org
mtllib textured.mtl
o T
v -0.060001 0.020800 0.010000
v 0.060001 0.051401 0.010000
v -0.060001 0.051401 0.010000
v 0.060001 0.020800 0.010000
v -0.015987 0.020800 0.010000
v -0.015987 -0.093000 0.010000
v 0.015987 0.020800 0.010000
v 0.015987 -0.093000 0.010000
v -0.060001 0.020800 -0.010000
v -0.060001 0.051401 -0.010000
v 0.060001 0.051401 -0.010000
v 0.060001 0.020800 -0.010000
v -0.015987 0.020800 -0.010000
v -0.015987 -0.093000 -0.010000
v 0.015987 0.020800 -0.010000
v 0.015987 -0.093000 -0.010000
vn 1.0000 -0.0000 -0.0000
vn -0.0000 -0.0000 1.0000
vn -0.0000 -1.0000 -0.0000
vn -0.0000 -0.0000 -1.0000
vn -1.0000 -0.0000 -0.0000
vn -0.0000 1.0000 -0.0000
s 0
f 16//1 15//1 7//1 8//1
f 5//2 4//2 1//2
f 9//3 13//3 5//3 1//3
f 7//2 4//2 5//2
f 15//4 16//4 14//4 13//4
f 13//4 9//4 12//4
f 1//2 4//2 2//2 3//2
f 15//2 13//2 12//2
f 14//3 16//3 8//3 6//3
f 10//5 9//5 1//5 3//5
f 12//1 11//1 2//1 4//1
f 11//4 12//4 9//4 10//4
f 13//5 14//5 6//5 5//5
f 11//6 10//6 3//6 2//6
f 6//2 8//2 7//2 5//2
f 15//3 12//3 4//3 7//3
